# 3ds Max Wavefront OBJ Exporter v0.99 - (c)2007 guruware
# File Created: 12.11.2023 12:40:33

mtllib TutorialArrow.mtl

#
# object Box002
#

v  -10.1625 -5.8377 0.0000
v  -10.1625 -1.9007 0.0000
v  -6.2254 -1.9007 0.0000
v  -6.2254 -5.8377 0.0000
v  -2.0603 -1.9007 0.0000
v  -2.0603 -5.8377 0.0000
v  -10.1625 2.0363 0.0000
v  -6.2254 2.0363 0.0000
v  -2.0603 2.0363 0.0000
v  -10.1625 5.9733 0.0000
v  -6.2254 5.9733 0.0000
v  -2.0603 5.9733 0.0000
v  -10.1625 9.9103 0.0000
v  -6.2254 9.9103 0.0000
v  -2.0603 9.9103 0.0000
v  -10.1625 13.8473 0.0000
v  -6.2254 13.8473 0.0000
v  -2.0603 13.8473 0.0000
v  -10.1625 -5.8377 19.6850
v  -6.2254 -5.8377 19.6850
v  -6.2254 -1.9007 19.6850
v  -10.1625 -1.9007 19.6850
v  -2.0603 -5.8377 19.6850
v  -2.0603 -1.9007 19.6850
v  -6.2254 2.0363 19.6850
v  -10.1625 2.0363 19.6850
v  -2.0603 2.0363 19.6850
v  -6.2254 5.9733 19.6850
v  -10.1625 5.9733 19.6850
v  -2.0603 5.9733 19.6850
v  -6.2254 9.9103 19.6850
v  -10.1625 9.9103 19.6850
v  -2.0603 9.9103 19.6850
v  -6.2254 13.8473 19.6850
v  -10.1625 13.8473 19.6850
v  -2.0603 13.8473 19.6850
v  -6.2254 13.8473 3.9370
v  -2.0603 13.8473 3.9370
v  -10.1625 13.8473 3.9370
v  -6.2254 13.8473 7.8740
v  -2.0603 13.8473 7.8740
v  -10.1625 13.8473 7.8740
v  -6.2254 13.8473 11.8110
v  -2.0603 13.8473 11.8110
v  -10.1625 13.8473 11.8110
v  -6.2254 13.8473 15.7480
v  -2.0603 13.8473 15.7480
v  -10.1625 13.8473 15.7480
v  -10.1625 9.9103 3.9370
v  -10.1625 5.9733 3.9370
v  -10.1625 2.0363 3.9370
v  -10.1625 -1.9007 3.9370
v  -10.1625 -5.8377 3.9370
v  -10.1625 9.9103 7.8740
v  -10.1625 5.9733 7.8740
v  -10.1625 2.0363 7.8740
v  -10.1625 -1.9007 7.8740
v  -10.1625 -5.8377 7.8740
v  -10.1625 9.9103 11.8110
v  -10.1625 5.9733 11.8110
v  -10.1625 2.0363 11.8110
v  -10.1625 -1.9007 11.8110
v  -10.1625 -5.8377 11.8110
v  -10.1625 9.9103 15.7480
v  -10.1625 5.9733 15.7480
v  -10.1625 2.0363 15.7480
v  -10.1625 -1.9007 15.7480
v  -10.1625 -5.8377 15.7480
v  -6.2254 -14.1610 0.0000
v  -10.1625 -14.1610 0.0000
v  -2.0603 -14.1610 0.0000
v  -6.2254 -14.1610 19.6850
v  -2.0603 -14.1610 19.6850
v  -10.1625 -14.1610 19.6850
v  -10.1625 -14.1610 15.7480
v  -10.1625 -14.1610 11.8110
v  -10.1625 -14.1610 7.8740
v  -10.1625 -14.1610 3.9370
v  -2.0603 -18.9586 0.0000
v  -6.2254 -18.9586 0.0000
v  -6.2254 -18.9586 19.6850
v  -2.0603 -18.9586 19.6850
v  -12.8081 -14.1610 19.6850
v  -14.7462 -14.1610 19.6850
v  -17.9486 -14.1610 19.6850
v  -17.9486 -18.9586 19.6850
v  -17.9486 -14.1610 15.7480
v  -17.9486 -18.9586 15.7480
v  -17.9486 -14.1610 11.8110
v  -17.9486 -18.9586 11.8110
v  -17.9486 -14.1610 7.8740
v  -17.9486 -18.9586 7.8740
v  -17.9486 -14.1610 3.9370
v  -17.9486 -18.9586 3.9370
v  -17.9486 -14.1610 0.0000
v  -17.9486 -18.9586 0.0000
v  -12.8081 -14.1610 15.7480
v  -12.8081 -14.1610 11.8110
v  -12.8081 -14.1610 7.8740
v  -12.8081 -14.1610 3.9370
v  -12.8081 -14.1610 0.0000
v  -14.7462 -14.1610 15.7480
v  -14.7462 -14.1610 11.8110
v  -14.7462 -14.1610 7.8740
v  -14.7462 -14.1610 3.9370
v  -14.7462 -14.1610 0.0000
v  -2.0603 -39.4558 0.0000
v  -2.0603 -39.4558 19.6850
v  6.0418 -5.8377 0.0000
v  2.1048 -5.8377 0.0000
v  2.1048 -1.9007 0.0000
v  6.0418 -1.9007 0.0000
v  2.1048 2.0363 0.0000
v  6.0418 2.0363 0.0000
v  2.1048 5.9733 0.0000
v  6.0418 5.9733 0.0000
v  2.1048 9.9103 0.0000
v  6.0418 9.9103 0.0000
v  2.1048 13.8473 0.0000
v  6.0418 13.8473 0.0000
v  6.0418 -5.8377 19.6850
v  6.0418 -1.9007 19.6850
v  2.1048 -1.9007 19.6850
v  2.1048 -5.8377 19.6850
v  6.0418 2.0363 19.6850
v  2.1048 2.0363 19.6850
v  6.0418 5.9733 19.6850
v  2.1048 5.9733 19.6850
v  6.0418 9.9103 19.6850
v  2.1048 9.9103 19.6850
v  6.0418 13.8473 19.6850
v  2.1048 13.8473 19.6850
v  2.1048 13.8473 3.9370
v  6.0418 13.8473 3.9370
v  2.1048 13.8473 7.8740
v  6.0418 13.8473 7.8740
v  2.1048 13.8473 11.8110
v  6.0418 13.8473 11.8110
v  2.1048 13.8473 15.7480
v  6.0418 13.8473 15.7480
v  6.0418 9.9103 3.9370
v  6.0418 5.9733 3.9370
v  6.0418 2.0363 3.9370
v  6.0418 -1.9007 3.9370
v  6.0418 -5.8377 3.9370
v  6.0418 9.9103 7.8740
v  6.0418 5.9733 7.8740
v  6.0418 2.0363 7.8740
v  6.0418 -1.9007 7.8740
v  6.0418 -5.8377 7.8740
v  6.0418 9.9103 11.8110
v  6.0418 5.9733 11.8110
v  6.0418 2.0363 11.8110
v  6.0418 -1.9007 11.8110
v  6.0418 -5.8377 11.8110
v  6.0418 9.9103 15.7480
v  6.0418 5.9733 15.7480
v  6.0418 2.0363 15.7480
v  6.0418 -1.9007 15.7480
v  6.0418 -5.8377 15.7480
v  6.0418 -14.1610 0.0000
v  2.1048 -14.1610 0.0000
v  2.1048 -14.1610 19.6850
v  6.0418 -14.1610 19.6850
v  6.0418 -14.1610 15.7480
v  6.0418 -14.1610 11.8110
v  6.0418 -14.1610 7.8740
v  6.0418 -14.1610 3.9370
v  2.1048 -18.9586 0.0000
v  2.1048 -18.9586 19.6850
v  13.8280 -18.9586 19.6850
v  13.8280 -14.1610 19.6850
v  10.6256 -14.1610 19.6850
v  8.6874 -14.1610 19.6850
v  13.8280 -14.1610 15.7480
v  13.8280 -18.9586 15.7480
v  13.8280 -14.1610 11.8110
v  13.8280 -18.9586 11.8110
v  13.8280 -14.1610 7.8740
v  13.8280 -18.9586 7.8740
v  13.8280 -14.1610 3.9370
v  13.8280 -18.9586 3.9370
v  13.8280 -14.1610 0.0000
v  13.8280 -18.9586 0.0000
v  8.6874 -14.1610 15.7480
v  8.6874 -14.1610 11.8110
v  8.6874 -14.1610 7.8740
v  8.6874 -14.1610 3.9370
v  8.6874 -14.1610 0.0000
v  10.6256 -14.1610 15.7480
v  10.6256 -14.1610 11.8110
v  10.6256 -14.1610 7.8740
v  10.6256 -14.1610 3.9370
v  10.6256 -14.1610 0.0000
# 194 vertices

vn -0.7071 0.0000 -0.7071
vn 0.0000 0.0000 -1.0000
vn -0.5774 0.5774 -0.5774
vn 0.0000 0.7071 -0.7071
vn -0.7071 0.0000 0.7071
vn 0.0000 0.0000 1.0000
vn 0.0000 0.7071 0.7071
vn -0.5774 0.5774 0.5774
vn 0.0000 1.0000 0.0000
vn -0.7071 0.7071 0.0000
vn -1.0000 0.0000 0.0000
vn -0.3015 0.3015 -0.9045
vn -0.3015 0.3015 0.9045
vn -0.7262 -0.2485 0.6410
vn -0.7262 -0.2485 -0.6410
vn 0.0000 -0.8249 -0.5652
vn 0.0000 -0.8249 0.5652
vn 0.7071 0.0000 -0.7071
vn 0.5774 0.5774 -0.5774
vn 0.7071 0.0000 0.7071
vn 0.5774 0.5774 0.5774
vn 0.7071 0.7071 0.0000
vn 1.0000 0.0000 0.0000
vn 0.3015 0.3015 -0.9045
vn 0.3015 0.3015 0.9045
vn 0.7262 -0.2485 0.6410
vn 0.7262 -0.2485 -0.6410
# 27 vertex normals

vt 1.0000 0.0000 0.0000
vt 1.0000 0.2000 0.0000
vt 0.8000 0.2000 0.0000
vt 0.8000 0.0000 0.0000
vt 0.6000 0.2000 0.0000
vt 0.6000 0.0000 0.0000
vt 1.0000 0.4000 0.0000
vt 0.8000 0.4000 0.0000
vt 0.6000 0.4000 0.0000
vt 1.0000 0.6000 0.0000
vt 0.8000 0.6000 0.0000
vt 0.6000 0.6000 0.0000
vt 1.0000 0.8000 0.0000
vt 0.8000 0.8000 0.0000
vt 0.6000 0.8000 0.0000
vt 1.0000 1.0000 0.0000
vt 0.8000 1.0000 0.0000
vt 0.6000 1.0000 0.0000
vt 0.0000 0.0000 0.0000
vt 0.2000 0.0000 0.0000
vt 0.2000 0.2000 0.0000
vt 0.0000 0.2000 0.0000
vt 0.4000 0.0000 0.0000
vt 0.4000 0.2000 0.0000
vt 0.2000 0.4000 0.0000
vt 0.0000 0.4000 0.0000
vt 0.4000 0.4000 0.0000
vt 0.2000 0.6000 0.0000
vt 0.0000 0.6000 0.0000
vt 0.4000 0.6000 0.0000
vt 0.2000 0.8000 0.0000
vt 0.0000 0.8000 0.0000
vt 0.4000 0.8000 0.0000
vt 0.2000 1.0000 0.0000
vt 0.0000 1.0000 0.0000
vt 0.4000 1.0000 0.0000
# 36 texture coords

o Box002
g Box002
usemtl Material__47
s 2
f 1/1/1 2/2/1 3/3/2 4/4/2 
f 4/4/2 3/3/2 5/5/2 6/6/2 
f 2/2/1 7/7/1 8/8/2 3/3/2 
f 3/3/2 8/8/2 9/9/2 5/5/2 
f 7/7/1 10/10/1 11/11/2 8/8/2 
f 8/8/2 11/11/2 12/12/2 9/9/2 
f 10/10/1 13/13/1 14/14/2 11/11/2 
f 11/11/2 14/14/2 15/15/2 12/12/2 
f 13/13/1 16/16/3 17/17/4 14/14/2 
f 14/14/2 17/17/4 18/18/4 15/15/2 
s 4
f 19/19/5 20/20/6 21/21/6 22/22/5 
f 20/20/6 23/23/6 24/24/6 21/21/6 
f 22/22/5 21/21/6 25/25/6 26/26/5 
f 21/21/6 24/24/6 27/27/6 25/25/6 
f 26/26/5 25/25/6 28/28/6 29/29/5 
f 25/25/6 27/27/6 30/30/6 28/28/6 
f 29/29/5 28/28/6 31/31/6 32/32/5 
f 28/28/6 30/30/6 33/33/6 31/31/6 
f 32/32/5 31/31/6 34/34/7 35/35/8 
f 31/31/6 33/33/6 36/36/7 34/34/7 
s 32
f 18/6/4 17/4/4 37/3/9 38/5/9 
f 17/4/4 16/1/3 39/2/10 37/3/9 
f 38/5/9 37/3/9 40/8/9 41/9/9 
f 37/3/9 39/2/10 42/7/10 40/8/9 
f 41/9/9 40/8/9 43/11/9 44/12/9 
f 40/8/9 42/7/10 45/10/10 43/11/9 
f 44/12/9 43/11/9 46/14/9 47/15/9 
f 43/11/9 45/10/10 48/13/10 46/14/9 
f 47/15/9 46/14/9 34/17/7 36/18/7 
f 46/14/9 48/13/10 35/16/8 34/17/7 
s 64
f 16/19/3 13/20/1 49/21/11 39/22/10 
f 13/20/1 10/23/1 50/24/11 49/21/11 
f 10/23/1 7/6/1 51/5/11 50/24/11 
f 7/6/1 2/4/1 52/3/11 51/5/11 
f 2/4/1 1/1/1 53/2/11 52/3/11 
f 39/22/10 49/21/11 54/25/11 42/26/10 
f 49/21/11 50/24/11 55/27/11 54/25/11 
f 50/24/11 51/5/11 56/9/11 55/27/11 
f 51/5/11 52/3/11 57/8/11 56/9/11 
f 52/3/11 53/2/11 58/7/11 57/8/11 
f 42/26/10 54/25/11 59/28/11 45/29/10 
f 54/25/11 55/27/11 60/30/11 59/28/11 
f 55/27/11 56/9/11 61/12/11 60/30/11 
f 56/9/11 57/8/11 62/11/11 61/12/11 
f 57/8/11 58/7/11 63/10/11 62/11/11 
f 45/29/10 59/28/11 64/31/11 48/32/10 
f 59/28/11 60/30/11 65/33/11 64/31/11 
f 60/30/11 61/12/11 66/15/11 65/33/11 
f 61/12/11 62/11/11 67/14/11 66/15/11 
f 62/11/11 63/10/11 68/13/11 67/14/11 
f 48/32/10 64/31/11 32/34/5 35/35/8 
f 64/31/11 65/33/11 29/36/5 32/34/5 
f 65/33/11 66/15/11 26/18/5 29/36/5 
f 66/15/11 67/14/11 22/17/5 26/18/5 
f 67/14/11 68/13/11 19/16/5 22/17/5 
s off
f 1/19/1 4/20/2 69/20/2 70/19/12 
f 4/20/2 6/23/2 71/23/2 69/20/2 
f 23/36/6 20/34/6 72/34/6 73/36/6 
f 20/34/6 19/35/5 74/35/13 72/34/6 
f 19/35/5 68/32/11 75/32/10 74/35/13 
f 68/32/11 63/29/11 76/29/10 75/32/10 
f 63/29/11 58/26/11 77/26/10 76/29/10 
f 58/26/11 53/22/11 78/22/10 77/26/10 
f 53/22/11 1/19/1 70/19/12 78/22/10 
f 71/23/2 79/23/2 80/20/2 69/20/2 
f 72/34/6 81/34/6 82/36/6 73/36/6 
f 81/34/6 72/34/6 74/35/13 83/35/7 84/35/7 85/35/8 86/35/14 
f 87/32/10 88/32/11 86/35/14 85/35/8 
f 89/29/10 90/29/11 88/32/11 87/32/10 
f 91/26/10 92/26/11 90/29/11 89/29/10 
f 93/22/10 94/22/11 92/26/11 91/26/10 
f 95/19/3 96/19/15 94/22/11 93/22/10 
f 74/35/13 75/32/10 97/32/9 83/35/7 
f 75/32/10 76/29/10 98/29/9 97/32/9 
f 76/29/10 77/26/10 99/26/9 98/29/9 
f 77/26/10 78/22/10 100/22/9 99/26/9 
f 78/22/10 70/19/12 101/19/4 100/22/9 
f 97/32/9 102/32/9 84/35/7 83/35/7 
f 98/29/9 103/29/9 102/32/9 97/32/9 
f 99/26/9 104/26/9 103/29/9 98/29/9 
f 100/22/9 105/22/9 104/26/9 99/26/9 
f 101/19/4 106/19/4 105/22/9 100/22/9 
f 102/32/9 87/32/10 85/35/8 84/35/7 
f 103/29/9 89/29/10 87/32/10 102/32/9 
f 104/26/9 91/26/10 89/29/10 103/29/9 
f 105/22/9 93/22/10 91/26/10 104/26/9 
f 106/19/4 95/19/3 93/22/10 105/22/9 
f 96/19/15 95/19/3 106/19/4 101/19/4 70/19/12 69/20/2 80/20/2 
f 86/35/14 96/19/15 107/23/16 108/36/17 
f 108/36/17 82/36/6 81/34/6 86/35/14 
f 96/19/15 80/20/2 79/23/2 107/23/16 
s 2
f 109/1/18 110/4/2 111/3/2 112/2/18 
f 110/4/2 6/6/2 5/5/2 111/3/2 
f 112/2/18 111/3/2 113/8/2 114/7/18 
f 111/3/2 5/5/2 9/9/2 113/8/2 
f 114/7/18 113/8/2 115/11/2 116/10/18 
f 113/8/2 9/9/2 12/12/2 115/11/2 
f 116/10/18 115/11/2 117/14/2 118/13/18 
f 115/11/2 12/12/2 15/15/2 117/14/2 
f 118/13/18 117/14/2 119/17/4 120/16/19 
f 117/14/2 15/15/2 18/18/4 119/17/4 
s 4
f 121/19/20 122/22/20 123/21/6 124/20/6 
f 124/20/6 123/21/6 24/24/6 23/23/6 
f 122/22/20 125/26/20 126/25/6 123/21/6 
f 123/21/6 126/25/6 27/27/6 24/24/6 
f 125/26/20 127/29/20 128/28/6 126/25/6 
f 126/25/6 128/28/6 30/30/6 27/27/6 
f 127/29/20 129/32/20 130/31/6 128/28/6 
f 128/28/6 130/31/6 33/33/6 30/30/6 
f 129/32/20 131/35/21 132/34/7 130/31/6 
f 130/31/6 132/34/7 36/36/7 33/33/6 
s 32
f 18/6/4 38/5/9 133/3/9 119/4/4 
f 119/4/4 133/3/9 134/2/22 120/1/19 
f 38/5/9 41/9/9 135/8/9 133/3/9 
f 133/3/9 135/8/9 136/7/22 134/2/22 
f 41/9/9 44/12/9 137/11/9 135/8/9 
f 135/8/9 137/11/9 138/10/22 136/7/22 
f 44/12/9 47/15/9 139/14/9 137/11/9 
f 137/11/9 139/14/9 140/13/22 138/10/22 
f 47/15/9 36/18/7 132/17/7 139/14/9 
f 139/14/9 132/17/7 131/16/21 140/13/22 
s 64
f 120/19/19 134/22/22 141/21/23 118/20/18 
f 118/20/18 141/21/23 142/24/23 116/23/18 
f 116/23/18 142/24/23 143/5/23 114/6/18 
f 114/6/18 143/5/23 144/3/23 112/4/18 
f 112/4/18 144/3/23 145/2/23 109/1/18 
f 134/22/22 136/26/22 146/25/23 141/21/23 
f 141/21/23 146/25/23 147/27/23 142/24/23 
f 142/24/23 147/27/23 148/9/23 143/5/23 
f 143/5/23 148/9/23 149/8/23 144/3/23 
f 144/3/23 149/8/23 150/7/23 145/2/23 
f 136/26/22 138/29/22 151/28/23 146/25/23 
f 146/25/23 151/28/23 152/30/23 147/27/23 
f 147/27/23 152/30/23 153/12/23 148/9/23 
f 148/9/23 153/12/23 154/11/23 149/8/23 
f 149/8/23 154/11/23 155/10/23 150/7/23 
f 138/29/22 140/32/22 156/31/23 151/28/23 
f 151/28/23 156/31/23 157/33/23 152/30/23 
f 152/30/23 157/33/23 158/15/23 153/12/23 
f 153/12/23 158/15/23 159/14/23 154/11/23 
f 154/11/23 159/14/23 160/13/23 155/10/23 
f 140/32/22 131/35/21 129/34/20 156/31/23 
f 156/31/23 129/34/20 127/36/20 157/33/23 
f 157/33/23 127/36/20 125/18/20 158/15/23 
f 158/15/23 125/18/20 122/17/20 159/14/23 
f 159/14/23 122/17/20 121/16/20 160/13/23 
s off
f 109/19/18 161/19/24 162/20/2 110/20/2 
f 110/20/2 162/20/2 71/23/2 6/23/2 
f 23/36/6 73/36/6 163/34/6 124/34/6 
f 124/34/6 163/34/6 164/35/25 121/35/20 
f 121/35/20 164/35/25 165/32/22 160/32/23 
f 160/32/23 165/32/22 166/29/22 155/29/23 
f 155/29/23 166/29/22 167/26/22 150/26/23 
f 150/26/23 167/26/22 168/22/22 145/22/23 
f 145/22/23 168/22/22 161/19/24 109/19/18 
f 71/23/2 162/20/2 169/20/2 79/23/2 
f 163/34/6 73/36/6 82/36/6 170/34/6 
f 170/34/6 171/35/26 172/35/21 173/35/7 174/35/7 164/35/25 163/34/6 
f 175/32/22 172/35/21 171/35/26 176/32/23 
f 177/29/22 175/32/22 176/32/23 178/29/23 
f 179/26/22 177/29/22 178/29/23 180/26/23 
f 181/22/22 179/26/22 180/26/23 182/22/23 
f 183/19/19 181/22/22 182/22/23 184/19/27 
f 164/35/25 174/35/7 185/32/9 165/32/22 
f 165/32/22 185/32/9 186/29/9 166/29/22 
f 166/29/22 186/29/9 187/26/9 167/26/22 
f 167/26/22 187/26/9 188/22/9 168/22/22 
f 168/22/22 188/22/9 189/19/4 161/19/24 
f 185/32/9 174/35/7 173/35/7 190/32/9 
f 186/29/9 185/32/9 190/32/9 191/29/9 
f 187/26/9 186/29/9 191/29/9 192/26/9 
f 188/22/9 187/26/9 192/26/9 193/22/9 
f 189/19/4 188/22/9 193/22/9 194/19/4 
f 190/32/9 173/35/7 172/35/21 175/32/22 
f 191/29/9 190/32/9 175/32/22 177/29/22 
f 192/26/9 191/29/9 177/29/22 179/26/22 
f 193/22/9 192/26/9 179/26/22 181/22/22 
f 194/19/4 193/22/9 181/22/22 183/19/19 
f 184/19/27 169/20/2 162/20/2 161/19/24 189/19/4 194/19/4 183/19/19 
f 171/35/26 108/36/17 107/23/16 184/19/27 
f 108/36/17 171/35/26 170/34/6 82/36/6 
f 184/19/27 107/23/16 79/23/2 169/20/2 
# 182 polygons

